<?xml version="1.0" encoding="utf-8"?>
<!-- Generator: Adobe Illustrator 21.0.0, SVG Export Plug-In . SVG Version: 6.00 Build 0)  -->
<svg version="1.1" id="Capa_1" xmlns="http://www.w3.org/2000/svg" xmlns:xlink="http://www.w3.org/1999/xlink" x="0px" y="0px"
	 viewBox="0 0 30 30" style="enable-background:new 0 0 30 30;" xml:space="preserve">
<style type="text/css">
	.st0{fill:#007399;}
</style>
<path class="st0" d="M23.7,14.9c0,0.4,0.3,0.8,0.8,0.8s0.8-0.3,0.8-0.8c0-5.5-4.5-10-10-10c-0.4,0-0.8,0.3-0.8,0.8s0.3,0.8,0.8,0.8
	C19.9,6.4,23.7,10.2,23.7,14.9z M14.5,9.7c0,0.4,0.3,0.8,0.8,0.8c2.4,0,4.3,1.9,4.3,4.3c0,0.4,0.3,0.8,0.8,0.8s0.8-0.3,0.8-0.8
	c0-3.2-2.6-5.8-5.8-5.8C14.8,9,14.5,9.3,14.5,9.7z M15.2,0.2c-0.4,0-0.8,0.3-0.8,0.8s0.3,0.8,0.8,0.8c7.2,0,13.1,5.9,13.1,13.1
	c0,0.4,0.3,0.8,0.8,0.8s0.8-0.3,0.8-0.8C29.8,6.8,23.3,0.2,15.2,0.2z M19.4,17.7c-0.1-0.1-0.3-0.2-0.5-0.2l0,0
	c-0.2,0-0.4,0.1-0.5,0.2l-1.6,1.6c-0.6,0.6-1.6,0.6-2.2,0l-3.7-3.4c-0.6-0.6-0.6-1.6,0-2.2l1.8-1.8c0.3-0.3,0.3-0.8,0-1.1L5.3,3.5
	C5.2,3.4,5,3.3,4.8,3.3S4.4,3.4,4.3,3.5s-2.4,2.4-2.9,3C0,7.9-0.2,10.8,0.8,13.3c2.2,5.5,9.5,12.2,15.6,15.9
	c0.5,0.3,1.7,0.6,2.9,0.6l0,0c1.1,0,2.7-0.2,4.1-1.4c1.3-1.1,2.8-2.7,2.9-2.8c0.3-0.3,0.3-0.8,0-1L19.4,17.7z M22.4,27.2
	c-1,0.9-2.2,1-3.1,1l0,0c-1.1,0-2-0.3-2.1-0.4C10.3,23.7,4,17.4,2.2,12.7c-0.8-2.1-0.5-4.4,0.2-5.2C2.8,7.1,4,5.9,4.8,5.1l6.2,6.2
	l-1.3,1.3c-1.2,1.2-1.2,3.1,0,4.3l3.7,3.4c1.1,1.1,3.1,1.1,4.3,0l1.1-1.1l5.8,5.8C24.1,25.7,23.2,26.6,22.4,27.2z"/>
</svg>
