<svg xmlns="http://www.w3.org/2000/svg" width="32" height="24" viewBox="0 0 32 24">
  <metadata><?xpacket begin="﻿" id="W5M0MpCehiHzreSzNTczkc9d"?>
<x:xmpmeta xmlns:x="adobe:ns:meta/" x:xmptk="Adobe XMP Core 5.6-c138 79.159824, 2016/09/14-01:09:01        ">
   <rdf:RDF xmlns:rdf="http://www.w3.org/1999/02/22-rdf-syntax-ns#">
      <rdf:Description rdf:about=""/>
   </rdf:RDF>
</x:xmpmeta>
                                                                                                    
                                                                                                    
                                                                                                    
                                                                                                    
                                                                                                    
                                                                                                    
                                                                                                    
                                                                                                    
                                                                                                    
                                                                                                    
                                                                                                    
                                                                                                    
                                                                                                    
                                                                                                    
                                                                                                    
                                                                                                    
                                                                                                    
                                                                                                    
                                                                                                    
                                                                                                    
                           
<?xpacket end="w"?></metadata>
<defs>
    <style>
      .cls-1 {
        fill: #004c80;
        fill-rule: evenodd;
      }
    </style>
  </defs>
  <path id="_7" data-name="7" class="cls-1" d="M416,259h24a4,4,0,0,1,4,4v16a4,4,0,0,1-4,4H416a4,4,0,0,1-4-4V263A4,4,0,0,1,416,259Zm-0.445,21.947,9.025-9.617,3.42,2.585,3.273-2.6,9.172,9.633C440.3,280.979,415.7,280.979,415.555,280.947ZM414,279a1.983,1.983,0,0,0,.1.579L423,270l-9-7v16Zm27-18-13,10-13-10h26Zm1,2-9,7,8.9,9.579A1.983,1.983,0,0,0,442,279V263Z" transform="translate(-412 -259)"/>
</svg>
