<svg xmlns="http://www.w3.org/2000/svg" width="32" height="32" viewBox="0 0 32 32">
  <metadata><?xpacket begin="﻿" id="W5M0MpCehiHzreSzNTczkc9d"?>
<x:xmpmeta xmlns:x="adobe:ns:meta/" x:xmptk="Adobe XMP Core 5.6-c138 79.159824, 2016/09/14-01:09:01        ">
   <rdf:RDF xmlns:rdf="http://www.w3.org/1999/02/22-rdf-syntax-ns#">
      <rdf:Description rdf:about=""/>
   </rdf:RDF>
</x:xmpmeta>
                                                                                                    
                                                                                                    
                                                                                                    
                                                                                                    
                                                                                                    
                                                                                                    
                                                                                                    
                                                                                                    
                                                                                                    
                                                                                                    
                                                                                                    
                                                                                                    
                                                                                                    
                                                                                                    
                                                                                                    
                                                                                                    
                                                                                                    
                                                                                                    
                                                                                                    
                                                                                                    
                           
<?xpacket end="w"?></metadata>
<defs>
    <style>
      .cls-1 {
        fill: #004c80;
        fill-rule: evenodd;
      }
    </style>
  </defs>
  <path id="_5" data-name="5" class="cls-1" d="M340.009,436.947s-3.163.634-6.373,1.294c-2.139,2.382-4.269,4.759-4.269,4.759l-4.586-7.826c-0.259.016-.517,0.039-0.781,0.039s-0.522-.023-0.781-0.039L318.633,443s-2.13-2.377-4.269-4.759c-3.21-.66-6.373-1.294-6.373-1.294l4.988-8.512a11.9,11.9,0,0,1-1.267-5.329,12.289,12.289,0,0,1,24.576,0,11.885,11.885,0,0,1-1.267,5.329Zm-10.4,2.423s1.536-1.457,2.98-2.86c2.048-.583,4.114-1.176,4.114-1.176l-2.9-4.946a12.292,12.292,0,0,1-6.847,4.458Zm-18.3-4.036s2.067,0.593,4.114,1.176c1.444,1.4,2.98,2.86,2.98,2.86l2.651-4.524a12.286,12.286,0,0,1-6.846-4.458ZM324,412.987A10.011,10.011,0,1,0,333.99,423,10,10,0,0,0,324,412.987ZM324,430a7,7,0,1,1,7-7A7,7,0,0,1,324,430Zm0-12a5,5,0,1,0,5,5A5,5,0,0,0,324,418Z" transform="translate(-308 -411)"/>
</svg>
