<svg xmlns="http://www.w3.org/2000/svg" width="32" height="32" viewBox="0 0 32 32">
  <metadata><?xpacket begin="﻿" id="W5M0MpCehiHzreSzNTczkc9d"?>
<x:xmpmeta xmlns:x="adobe:ns:meta/" x:xmptk="Adobe XMP Core 5.6-c138 79.159824, 2016/09/14-01:09:01        ">
   <rdf:RDF xmlns:rdf="http://www.w3.org/1999/02/22-rdf-syntax-ns#">
      <rdf:Description rdf:about=""/>
   </rdf:RDF>
</x:xmpmeta>
                                                                                                    
                                                                                                    
                                                                                                    
                                                                                                    
                                                                                                    
                                                                                                    
                                                                                                    
                                                                                                    
                                                                                                    
                                                                                                    
                                                                                                    
                                                                                                    
                                                                                                    
                                                                                                    
                                                                                                    
                                                                                                    
                                                                                                    
                                                                                                    
                                                                                                    
                                                                                                    
                           
<?xpacket end="w"?></metadata>
<defs>
    <style>
      .cls-1 {
        fill: #004c80;
        fill-rule: evenodd;
      }
    </style>
  </defs>
  <path id="_2" data-name="2" class="cls-1" d="M168,283a18.243,18.243,0,0,1-2.991-.253L158,287v-7.081A13.4,13.4,0,0,1,152,269c0-7.732,7.163-14,16-14s16,6.268,16,14S176.837,283,168,283Zm0-26c-7.732,0-14,5.373-14,12a11.592,11.592,0,0,0,5.975,9.824l-0.063,4.639,4.708-2.83A16.183,16.183,0,0,0,168,281c7.732,0,14-5.372,14-12S175.732,257,168,257Zm7,11H161a1,1,0,0,1,0-2h14A1,1,0,0,1,175,268Zm-12,4h10a1,1,0,0,1,0,2H163A1,1,0,0,1,163,272Z" transform="translate(-152 -255)"/>
</svg>
