<svg xmlns="http://www.w3.org/2000/svg" width="460" height="100" viewBox="0 0 460 100">
  <metadata><?xpacket begin="﻿" id="W5M0MpCehiHzreSzNTczkc9d"?>
<x:xmpmeta xmlns:x="adobe:ns:meta/" x:xmptk="Adobe XMP Core 5.6-c138 79.159824, 2016/09/14-01:09:01        ">
   <rdf:RDF xmlns:rdf="http://www.w3.org/1999/02/22-rdf-syntax-ns#">
      <rdf:Description rdf:about=""/>
   </rdf:RDF>
</x:xmpmeta>
                                                                                                    
                                                                                                    
                                                                                                    
                                                                                                    
                                                                                                    
                                                                                                    
                                                                                                    
                                                                                                    
                                                                                                    
                                                                                                    
                                                                                                    
                                                                                                    
                                                                                                    
                                                                                                    
                                                                                                    
                                                                                                    
                                                                                                    
                                                                                                    
                                                                                                    
                                                                                                    
                           
<?xpacket end="w"?></metadata>
<defs>
    <style>
      .cls-1, .cls-2, .cls-3, .cls-4 {
        fill-rule: evenodd;
      }

      .cls-2 {
        fill: #004099;
      }

      .cls-3 {
        fill: #005999;
      }

      .cls-4 {
        fill: #007399;
      }
    </style>
  </defs>
  <path id="telefony" class="cls-1" d="M29.9,66.076a16.664,16.664,0,0,1-2.492,1.2,6.641,6.641,0,0,1-2.2.336q-3.932,0-3.93-4.6V33.484h8.435l1.15-8.531H21.272V12.3L9.482,13.738V24.953H3.539v8.531H9.482V63.009q0,6.52,3.451,10.3T23,77.1a17.177,17.177,0,0,0,11.024-3.739ZM73.418,49.109q0-12.557-4.985-19.028t-13.9-6.47q-9.3,0-14.379,7.285T35.075,50.739q0,12.559,5.32,19.459t15.289,6.9a22.287,22.287,0,0,0,16.1-6.518L66.9,63.871a22.707,22.707,0,0,1-5.176,3.211,13.744,13.744,0,0,1-5.368,1.007,7.849,7.849,0,0,1-6.662-3.115Q47.343,61.86,46.961,54H73.13q0.288-4.026.288-4.889h0Zm-11.5-2.78H46.961q0.382-8.052,2.253-11.263a5.931,5.931,0,0,1,5.416-3.211,5.828,5.828,0,0,1,5.56,3.307q1.725,3.307,1.726,10.5v0.671ZM92.4,77.1a14.688,14.688,0,0,0,7.285-1.821l-2.3-8.052a3.707,3.707,0,0,0-.815.192,4.353,4.353,0,0,1-1.294.192,2.017,2.017,0,0,1-1.725-.767,3.269,3.269,0,0,1-.575-2.013V3.385L81.182,4.631V65.309A12.013,12.013,0,0,0,84.2,73.889,10.711,10.711,0,0,0,92.4,77.1h0Zm48.792-27.991q0-12.557-4.984-19.028t-13.9-6.47q-9.3,0-14.378,7.285t-5.081,19.843q0,12.559,5.32,19.459t15.29,6.9a22.288,22.288,0,0,0,16.1-6.518l-4.889-6.71a22.712,22.712,0,0,1-5.176,3.211,13.743,13.743,0,0,1-5.368,1.007,7.848,7.848,0,0,1-6.662-3.115Q115.114,61.86,114.733,54H140.9q0.288-4.026.287-4.889h0Zm-11.5-2.78H114.733q0.381-8.052,2.252-11.263a5.93,5.93,0,0,1,5.416-3.211,5.827,5.827,0,0,1,5.56,3.307q1.725,3.307,1.725,10.5v0.671ZM168.029,12.3a14.889,14.889,0,0,1,6.519,1.63l3.259-7.669A24,24,0,0,0,166.5,3.385q-7.478,0-11.5,4.122t-4.026,11.024v6.422H144.64v8.531h6.327V75.662h11.79V33.484h8.34l1.342-8.531h-9.682V18.147a6.438,6.438,0,0,1,1.294-4.409,5.09,5.09,0,0,1,3.978-1.438h0Zm26.84,11.311q-9.489,0-14.858,6.9T174.643,50.26q0,12.941,5.368,19.891t14.858,6.95q9.49,0,14.858-7.094T215.1,50.26q0-13.228-5.32-19.938t-14.906-6.71h0Zm0,8.915a6.33,6.33,0,0,1,6.039,4.026q1.917,4.026,1.917,13.708t-1.917,13.756a6.513,6.513,0,0,1-12.078,0q-1.919-4.073-1.917-13.756,0-9.584,1.917-13.66a6.328,6.328,0,0,1,6.039-4.074h0Zm52.625-8.915a12.338,12.338,0,0,0-7.045,1.965,20.248,20.248,0,0,0-5.512,5.991l-0.863-6.614H223.817V75.662h11.791V40.195q3.93-7.571,7.956-7.573a3.257,3.257,0,0,1,2.924,1.582q1.006,1.582,1.006,5.224V75.662h11.791V38.086q0-6.614-3.163-10.544a10.483,10.483,0,0,0-8.628-3.93h0Zm57.61,1.342H293.409L284.4,67.8l-8.436-42.848H263.981l12.845,50.709h4.409q-1.725,5.751-4.745,8.483t-9.058,3.978l1.342,8.34q9.3-.863,14.858-6.135t8.052-14.475Z"/>
  <path id="G" class="cls-2" d="M333.67,8.561A21.073,21.073,0,0,0,321.5,12.3q-5.464,3.738-8.723,11.407t-3.26,18.884q0,34.221,23.294,34.221a31.063,31.063,0,0,0,18.021-5.847V39.14h-18.4l0.958,7.093h9.011V66.747a16.751,16.751,0,0,1-9.49,2.876A12.25,12.25,0,0,1,325,67.131q-3.117-2.492-4.7-8.387t-1.581-16.152q0-14.666,4.17-20.8t10.784-6.135a15.372,15.372,0,0,1,6.183,1.15,22.9,22.9,0,0,1,5.7,3.834l4.793-4.889a28.678,28.678,0,0,0-7.717-5.416,21.374,21.374,0,0,0-8.962-1.773h0Z"/>
  <path id="S" class="cls-3" d="M377.707,8.561a19.079,19.079,0,0,0-9.3,2.253A16.392,16.392,0,0,0,361.986,17a16.773,16.773,0,0,0-2.3,8.627,16.707,16.707,0,0,0,3.883,11.311q3.882,4.507,12.221,7.669,6.519,2.4,8.915,5.272a11.6,11.6,0,0,1,2.4,7.669q0,5.56-2.972,8.819a10.241,10.241,0,0,1-7.956,3.259,16.348,16.348,0,0,1-7.333-1.629,28.946,28.946,0,0,1-6.662-4.7l-4.7,4.985a26.968,26.968,0,0,0,8.339,6.327,24.124,24.124,0,0,0,10.545,2.2,20.315,20.315,0,0,0,10.448-2.636,18.3,18.3,0,0,0,6.95-7.094,19.91,19.91,0,0,0,2.444-9.73q0-8.146-4.026-12.557T380.3,37.415q-6.809-2.588-9.251-5.272a9.853,9.853,0,0,1-2.444-6.9,9.593,9.593,0,0,1,2.54-6.95,8.832,8.832,0,0,1,6.662-2.636,15.24,15.24,0,0,1,6.327,1.294,20.987,20.987,0,0,1,5.847,4.17l4.6-4.985a23.19,23.19,0,0,0-7.525-5.7,22.193,22.193,0,0,0-9.346-1.869h0Z"/>
  <path id="M" class="cls-4" d="M451.575,9.616h-11.6L429.815,58.024,419.079,9.616H407.768l-4.5,66.046h8.244l1.629-29.428q0.766-15.911.767-23.389l-0.1-4.41L425.6,68.185h8.148l11.215-49.654q-0.194,8.533,1.054,27.128l1.726,30h8.244Z"/>
</svg>
