<svg id="mapa" xmlns="http://www.w3.org/2000/svg" width="800" height="740" viewBox="0 0 800 740">
  <metadata><?xpacket begin="﻿" id="W5M0MpCehiHzreSzNTczkc9d"?>
<x:xmpmeta xmlns:x="adobe:ns:meta/" x:xmptk="Adobe XMP Core 5.6-c138 79.159824, 2016/09/14-01:09:01        ">
   <rdf:RDF xmlns:rdf="http://www.w3.org/1999/02/22-rdf-syntax-ns#">
      <rdf:Description rdf:about=""/>
   </rdf:RDF>
</x:xmpmeta>
                                                                                                    
                                                                                                    
                                                                                                    
                                                                                                    
                                                                                                    
                                                                                                    
                                                                                                    
                                                                                                    
                                                                                                    
                                                                                                    
                                                                                                    
                                                                                                    
                                                                                                    
                                                                                                    
                                                                                                    
                                                                                                    
                                                                                                    
                                                                                                    
                                                                                                    
                                                                                                    
                           
<?xpacket end="w"?></metadata>
<defs>
    <style>
      .cls-1 {
        fill: #c6c6c6;
      }

      .cls-1, .cls-2, .cls-3, .cls-4, .cls-5 {
        fill-rule: evenodd;
      }

      .cls-3 {
        fill: #084296;
      }

      .cls-4 {
        fill: #0b5a97;
      }

      .cls-5 {
        fill: #0e7397;
      }

      .cls-6 {
        fill: #007399;
        stroke: #004099;
        stroke-width: 6px;
      }
    </style>
  </defs>
  <path class="cls-1" d="M109,46L75,94,414,335s-65.568,30.846-390-25c-0.232-.04-10,57-10,57s128.4,29.657,300,37c0.338,0.014-56.641,3.638-305,277-0.291.32,42.536,40.5,43,40C327.623,425.835,393.963,417.283,469,417c70.393-.266,124.205,36.831,282,156,0.367,0.277,34-49,34-49S530.565,344.211,531,344c57.5-27.963,168-219,168-219L649,96S531.238,290.531,480,308C479.761,308.082,109,46,109,46Z"/>
  <path id="Grochowska" class="cls-2" d="M123.683,76a8.356,8.356,0,0,0-4.783-1.616,10.046,10.046,0,0,0-5.448,1.651,19.159,19.159,0,0,0-5.421,5.322q-7.923,11.012-.427,16.4a12.316,12.316,0,0,0,7.153,2.291l7.368-10.241L116.2,85.555l-1.333,2.5,2.9,2.086-4.749,6.6a6.644,6.644,0,0,1-3.72-1.272,4.857,4.857,0,0,1-1.967-2.633,6.169,6.169,0,0,1,.43-3.787,25.774,25.774,0,0,1,3.231-5.564q3.395-4.719,6.157-5.728a4.985,4.985,0,0,1,4.891.523,6.093,6.093,0,0,1,1.723,1.8,9.086,9.086,0,0,1,.948,2.554l2.674-.463a11.378,11.378,0,0,0-1.229-3.529A8.481,8.481,0,0,0,123.683,76h0ZM135.7,92.23q-2.531-1.82-6.09.721l1.959-3.178-2.344-1.687-11.7,16.255,2.714,1.953,6.88-9.562A10.627,10.627,0,0,1,130.7,94.3a2.877,2.877,0,0,1,2.751.341,5.677,5.677,0,0,1,1,.953L136.8,93.3a4.78,4.78,0,0,0-1.1-1.073h0Zm8.143,5.859a6.478,6.478,0,0,0-6.079-1.05q-3.18,1.036-6.131,5.139-2.863,3.978-2.879,7.385a6.836,6.836,0,0,0,8.994,6.4,13.067,13.067,0,0,0,6.091-5.05q3-4.164,2.95-7.451a6.478,6.478,0,0,0-2.946-5.373h0Zm-1.575,2.19a3.188,3.188,0,0,1,1.351,3.2q-0.252,2.042-2.649,5.373a13.276,13.276,0,0,1-4.286,4.266,3.352,3.352,0,0,1-4.843-3.484,13.149,13.149,0,0,1,2.66-5.389q2.419-3.361,4.276-4.251a3.216,3.216,0,0,1,3.491.288h0Zm16.5,8.551a6.394,6.394,0,0,0-6.073-.928q-3.265,1.091-6.195,5.162-3,4.166-2.9,7.416a6.582,6.582,0,0,0,2.995,5.338,7.115,7.115,0,0,0,5.389,1.162l-0.088-2.544a8.78,8.78,0,0,1-2.025-.146,4.264,4.264,0,0,1-1.6-.733,3.25,3.25,0,0,1-1.385-3.15q0.188-2.017,2.563-5.318,4.571-6.354,7.841-4a4.539,4.539,0,0,1,1.235,1.31,6.926,6.926,0,0,1,.751,1.851l2.388-.716a6.649,6.649,0,0,0-2.891-4.7h0Zm13.48,9.7a4.549,4.549,0,0,0-2.714-.946,7.968,7.968,0,0,0-3.09.749l6.524-9.069-2.914-1.675-16.378,22.764,2.714,1.953,8.234-11.444q3.685-1.935,5.444-.67a1.86,1.86,0,0,1,.865,1.629,5.132,5.132,0,0,1-1.162,2.558l-8.322,11.567,2.714,1.953,8.589-11.937a6.348,6.348,0,0,0,1.393-4.148,4.264,4.264,0,0,0-1.9-3.284h0Zm13.479,9.7a6.478,6.478,0,0,0-6.079-1.05q-3.18,1.036-6.132,5.138-2.862,3.979-2.879,7.385a6.837,6.837,0,0,0,8.994,6.4,13.07,13.07,0,0,0,6.092-5.05q3-4.164,2.95-7.451a6.481,6.481,0,0,0-2.946-5.373h0Zm-1.576,2.19a3.187,3.187,0,0,1,1.352,3.2q-0.252,2.043-2.649,5.374a13.3,13.3,0,0,1-4.286,4.266,3.352,3.352,0,0,1-4.843-3.485,13.149,13.149,0,0,1,2.66-5.389q2.419-3.361,4.275-4.25a3.216,3.216,0,0,1,3.491.288h0Zm24.373,14.727-12.536,12.609,7.971-15.893-3.177-2.286-12.6,12.564,8.033-15.849-2.653-1.909-8.673,18.431,3.547,2.552,12.036-12.173-7.686,15.3,3.609,2.6,14.657-14.125Zm9.59,6.385a6.894,6.894,0,0,0-3.012-1.278,5.415,5.415,0,0,0-2.928.328,5.148,5.148,0,0,0-2.252,1.8,4.971,4.971,0,0,0-1.017,3.365,9.018,9.018,0,0,0,1.72,4.116,12.531,12.531,0,0,1,1.33,2.315,3.269,3.269,0,0,1,.269,1.644,3.576,3.576,0,0,1-.7,1.557,3.035,3.035,0,0,1-2.117,1.38,3.458,3.458,0,0,1-2.462-.742,6.768,6.768,0,0,1-2.583-4.152l-2.507.49a8.488,8.488,0,0,0,3.62,5.835,7.27,7.27,0,0,0,4.793,1.5,5.413,5.413,0,0,0,4.143-2.473,5.207,5.207,0,0,0,1.126-3.777,10.307,10.307,0,0,0-1.894-4.265,8.666,8.666,0,0,1-1.479-2.89,2.6,2.6,0,0,1,.538-2.048,2.667,2.667,0,0,1,1.819-1.195,2.933,2.933,0,0,1,2.145.63,5.523,5.523,0,0,1,1.463,1.545,9.161,9.161,0,0,1,.967,2.17l2.3-.73a7.917,7.917,0,0,0-3.287-5.127h0Zm12.635-.319-16.4,22.795,2.715,1.953,16.622-23.1Zm3.068,12.132-10.208,3.844-1.241,12.589,3.023,2.175,1.136-12.9,10.066-3.711Zm5.133,23.121,5.771-8.02a6.685,6.685,0,0,0,1.5-4.655,5.884,5.884,0,0,0-2.752-4.016A14.612,14.612,0,0,0,238,167.478l-0.7,2.4a12.507,12.507,0,0,1,4.269,1.808A3,3,0,0,1,243,173.836a4.4,4.4,0,0,1-1.054,2.8l-1.065,1.48-1.6-1.154a8.591,8.591,0,0,0-5.645-1.978,6.071,6.071,0,0,0-4.456,2.809,6.382,6.382,0,0,0-1.376,4.417,4.989,4.989,0,0,0,2.227,3.639,5.2,5.2,0,0,0,5.573.452,3.641,3.641,0,0,0-.224,2.3,4.643,4.643,0,0,0,1.283,2.024l1.94-1.46a2.083,2.083,0,0,1-.325-1.24,3.179,3.179,0,0,1,.674-1.458h0Zm-6.9-2.25a2.262,2.262,0,0,1-1.029-1.888,4.62,4.62,0,0,1,1.054-2.636,4.072,4.072,0,0,1,2.752-1.905,5.089,5.089,0,0,1,3.452,1.22l1.3,0.932-2.729,3.794q-2.883,1.859-4.795.483h0Z"/>
  <path id="Ostrobramska" class="cls-2" d="M48.541,329.423a7.9,7.9,0,0,0-7.2,2.366q-2.956,3.01-3.965,9.66-1.021,6.726.9,10.4a7.941,7.941,0,0,0,6.2,4.324,7.849,7.849,0,0,0,7.2-2.347q2.914-3,3.924-9.648,1.021-6.725-.879-10.414a7.877,7.877,0,0,0-6.183-4.34h0Zm-0.422,2.78a4.493,4.493,0,0,1,3.722,3.082q1.016,2.671.155,8.345-0.867,5.711-2.625,7.923a4.5,4.5,0,0,1-4.463,1.8,4.549,4.549,0,0,1-3.724-3.063q-1.058-2.66-.2-8.294,0.861-5.673,2.646-7.939a4.529,4.529,0,0,1,4.49-1.855h0Zm17.832,6.089a6.885,6.885,0,0,0-3.264.235,5.422,5.422,0,0,0-2.457,1.625,5.156,5.156,0,0,0-1.187,2.626,4.971,4.971,0,0,0,.628,3.458,9.007,9.007,0,0,0,3.406,2.881,12.641,12.641,0,0,1,2.239,1.455,3.262,3.262,0,0,1,.988,1.341,3.569,3.569,0,0,1,.087,1.7,3.033,3.033,0,0,1-1.255,2.192,3.458,3.458,0,0,1-2.53.462,6.777,6.777,0,0,1-4.191-2.52l-2.008,1.579a8.485,8.485,0,0,0,5.881,3.544,7.266,7.266,0,0,0,4.952-.843,5.41,5.41,0,0,0,2.562-4.089,5.206,5.206,0,0,0-.718-3.876,10.318,10.318,0,0,0-3.629-2.934,8.652,8.652,0,0,1-2.633-1.9,2.594,2.594,0,0,1-.455-2.068,2.673,2.673,0,0,1,1.075-1.893,2.936,2.936,0,0,1,2.2-.416,5.524,5.524,0,0,1,2.007.708,9.222,9.222,0,0,1,1.849,1.492l1.719-1.7a7.925,7.925,0,0,0-5.261-3.066h0Zm14.814,19.89a5.132,5.132,0,0,1-1.132.367,3.381,3.381,0,0,1-1.075-.01q-1.766-.267-1.452-2.334l1.95-12.849,3.494,0.531,0.732-2.541-3.832-.582,0.741-4.884-3.369-.089-0.679,4.471-2.668-.4-0.394,2.592,2.668,0.4-1.945,12.812a5.037,5.037,0,0,0,.685,3.716,4.509,4.509,0,0,0,3.238,1.837,5.99,5.99,0,0,0,4-.776ZM94.991,342.7q-3.081-.468-5.092,3.417l0.3-3.722-2.855-.434-3.005,19.8,3.306,0.5,1.768-11.647a10.627,10.627,0,0,1,2.075-3.8,2.879,2.879,0,0,1,2.6-.95,5.691,5.691,0,0,1,1.324.394l1.048-3.108a4.792,4.792,0,0,0-1.469-.454h0Zm9.919,1.506a6.476,6.476,0,0,0-5.89,1.835q-2.359,2.372-3.117,7.367-0.736,4.846.8,7.886a6.837,6.837,0,0,0,10.923,1.6,13.07,13.07,0,0,0,3.122-7.271q0.77-5.071-.769-7.976a6.477,6.477,0,0,0-5.07-3.441h0Zm-0.405,2.667a3.188,3.188,0,0,1,2.66,2.23,13.044,13.044,0,0,1,.09,5.99q-0.622,4.095-1.873,5.75a3.351,3.351,0,0,1-5.9-.9,13.151,13.151,0,0,1-.087-6.009q0.621-4.1,1.869-5.732a3.217,3.217,0,0,1,3.239-1.334h0Zm20.091,0.321a5.3,5.3,0,0,0-4.974,2.128l1.62-10.67-3.358-.164-4.208,27.727,2.93,0.444,0.539-2.032a6.181,6.181,0,0,0,1.671,2.157,4.749,4.749,0,0,0,2.3,1.022,5.068,5.068,0,0,0,3.551-.729,8.021,8.021,0,0,0,2.777-3.23,17.588,17.588,0,0,0,1.633-5.441q0.775-5.109-.428-7.944a5.032,5.032,0,0,0-4.058-3.268h0Zm-3.789,17.874a3.1,3.1,0,0,1-1.83-.989,6.512,6.512,0,0,1-1.277-2.1l1.489-9.806q2.115-2.792,4.219-2.473a2.729,2.729,0,0,1,2.22,2.086q0.6,1.84-.04,6.086-1.174,7.74-4.781,7.192h0Zm21.86-15.131q-3.081-.468-5.093,3.417l0.3-3.722-2.855-.434L132.009,369l3.306,0.5,1.768-11.647a10.632,10.632,0,0,1,2.076-3.8,2.879,2.879,0,0,1,2.6-.95,5.7,5.7,0,0,1,1.324.394l1.048-3.108a4.794,4.794,0,0,0-1.468-.454h0Zm12.41,18.258,1.483-9.769a6.68,6.68,0,0,0-.786-4.827,5.883,5.883,0,0,0-4.279-2.322,14.608,14.608,0,0,0-5.91.449l0.473,2.454a12.55,12.55,0,0,1,4.625-.335,3,3,0,0,1,2.249,1.263,4.4,4.4,0,0,1,.336,2.973l-0.273,1.8-1.954-.3a8.6,8.6,0,0,0-5.927.811,6.07,6.07,0,0,0-2.686,4.531,6.372,6.372,0,0,0,.788,4.559,4.989,4.989,0,0,0,3.64,2.225,5.205,5.205,0,0,0,5.167-2.137,3.636,3.636,0,0,0,.847,2.146,4.633,4.633,0,0,0,2.063,1.217L156,370.755a2.076,2.076,0,0,1-.854-0.956,3.184,3.184,0,0,1-.064-1.6h0Zm-7.168,1.141a2.263,2.263,0,0,1-1.777-1.212,4.627,4.627,0,0,1-.262-2.826,4.067,4.067,0,0,1,1.581-2.95,5.086,5.086,0,0,1,3.629-.487l1.578,0.24-0.7,4.621q-1.719,2.967-4.048,2.614h0Zm31.8-13.776q-2.856-.433-5.42,2.79a5.249,5.249,0,0,0-1.088-2.836,3.72,3.72,0,0,0-2.4-1.305q-2.819-.428-5.193,2.555l0.208-2.889-2.855-.434-3,19.8,3.231,0.49,2.144-14.126a8.649,8.649,0,0,1,2.1-2.333,2.892,2.892,0,0,1,2.152-.634q1.992,0.3,1.456,3.834L168.9,374.6l3.231,0.49,2.145-14.126q2.226-3.274,4.217-2.972a1.655,1.655,0,0,1,1.359,1.051,5.47,5.47,0,0,1,.1,2.782l-2.145,14.127,3.231,0.49,2.207-14.539a6.635,6.635,0,0,0-.577-4.3,3.881,3.881,0,0,0-2.957-2.044h0Zm14.539,2.207a6.9,6.9,0,0,0-3.264.235,5.409,5.409,0,0,0-2.457,1.626,5.151,5.151,0,0,0-1.187,2.625,4.977,4.977,0,0,0,.628,3.459,9.021,9.021,0,0,0,3.407,2.881,12.624,12.624,0,0,1,2.239,1.454,3.264,3.264,0,0,1,.987,1.342,3.569,3.569,0,0,1,.088,1.7,3.036,3.036,0,0,1-1.256,2.193,3.462,3.462,0,0,1-2.53.461,6.769,6.769,0,0,1-4.191-2.52l-2.008,1.579a8.484,8.484,0,0,0,5.881,3.545,7.262,7.262,0,0,0,4.952-.844,5.409,5.409,0,0,0,2.561-4.089,5.2,5.2,0,0,0-.718-3.875,10.3,10.3,0,0,0-3.629-2.934,8.675,8.675,0,0,1-2.633-1.9,2.594,2.594,0,0,1-.455-2.067,2.672,2.672,0,0,1,1.076-1.893,2.93,2.93,0,0,1,2.2-.417,5.55,5.55,0,0,1,2.007.709,9.226,9.226,0,0,1,1.849,1.491l1.718-1.7a7.921,7.921,0,0,0-5.261-3.067h0Zm11.1-6.04-4.215,27.764,3.306,0.5,4.272-28.14Zm8.258,9.4-7.336,8.072,4.631,11.773,3.682,0.559-4.866-12,7.27-7.89Zm15.1,18.243L230.2,369.6a6.679,6.679,0,0,0-.786-4.827,5.883,5.883,0,0,0-4.279-2.322,14.624,14.624,0,0,0-5.91.448l0.473,2.455a12.532,12.532,0,0,1,4.625-.336,3.006,3.006,0,0,1,2.249,1.264,4.4,4.4,0,0,1,.336,2.972l-0.273,1.8-1.954-.3a8.6,8.6,0,0,0-5.927.811,6.07,6.07,0,0,0-2.686,4.531,6.373,6.373,0,0,0,.788,4.559,4.985,4.985,0,0,0,3.64,2.224,5.2,5.2,0,0,0,5.167-2.136,3.639,3.639,0,0,0,.847,2.146,4.632,4.632,0,0,0,2.063,1.216l1.062-2.183a2.081,2.081,0,0,1-.854-0.956,3.177,3.177,0,0,1-.064-1.6h0Zm-7.168,1.141a2.262,2.262,0,0,1-1.777-1.211,4.634,4.634,0,0,1-.263-2.826,4.071,4.071,0,0,1,1.582-2.95,5.08,5.08,0,0,1,3.629-.487l1.578,0.239-0.7,4.621q-1.719,2.968-4.048,2.614h0Z"/>
  <path id="Marsa" class="cls-2" d="M616.137,175.133l-2.273,4,14.69,12.987-18.785-5.786-2.217,3.9,21.877,14.495,1.616-2.841-9.822-6.329q-5.332-3.381-7.91-4.847l-1.538-.831,19.454,5.686,1.6-2.808-14.913-13.595q2.9,1.739,9.555,4.953l10.677,5.284,1.615-2.84Zm28.038-4.951-8.588-4.884a6.681,6.681,0,0,0-4.789-1,5.882,5.882,0,0,0-3.7,3.163,14.628,14.628,0,0,0-1.7,5.679l2.461,0.438a12.527,12.527,0,0,1,1.344-4.438,3,3,0,0,1,1.985-1.647,4.4,4.4,0,0,1,2.9.75l1.585,0.9-0.976,1.718a8.591,8.591,0,0,0-1.367,5.823,6.073,6.073,0,0,0,3.268,4.132,6.383,6.383,0,0,0,4.538.9,4.991,4.991,0,0,0,3.382-2.6,5.206,5.206,0,0,0-.144-5.59,3.637,3.637,0,0,0,2.307-.021,4.636,4.636,0,0,0,1.875-1.491l-1.658-1.774a2.066,2.066,0,0,1-1.2.455,3.17,3.17,0,0,1-1.522-.515h0Zm-1.5,7.1a2.263,2.263,0,0,1-1.768,1.224,4.624,4.624,0,0,1-2.733-.767,4.072,4.072,0,0,1-2.187-2.534,5.085,5.085,0,0,1,.845-3.563l0.789-1.387,4.063,2.311q2.156,2.667.991,4.716h0Zm-6.014-26.632q-1.541,2.709,1.365,5.978l-3.368-1.609-1.428,2.51,17.408,9.9,1.653-2.907-10.24-5.823a10.624,10.624,0,0,1-2.8-3.3,2.876,2.876,0,0,1,.046-2.771,5.687,5.687,0,0,1,.842-1.095l-2.526-2.093a4.79,4.79,0,0,0-.95,1.209h0Zm4.433-7.8a6.9,6.9,0,0,0-.95,3.132,5.423,5.423,0,0,0,.638,2.876,5.149,5.149,0,0,0,2.026,2.048,4.978,4.978,0,0,0,3.454.653,9.014,9.014,0,0,0,3.91-2.148,12.626,12.626,0,0,1,2.16-1.57,3.268,3.268,0,0,1,1.606-.441,3.57,3.57,0,0,1,1.623.529,3.037,3.037,0,0,1,1.6,1.957,3.459,3.459,0,0,1-.476,2.528,6.768,6.768,0,0,1-3.853,3.01l0.754,2.44A8.484,8.484,0,0,0,659,153.65a7.262,7.262,0,0,0,.987-4.925,5.408,5.408,0,0,0-2.9-3.857,5.21,5.21,0,0,0-3.876-.718,10.314,10.314,0,0,0-4.039,2.337,8.664,8.664,0,0,1-2.716,1.778,2.594,2.594,0,0,1-2.093-.316,2.671,2.671,0,0,1-1.382-1.682,2.935,2.935,0,0,1,.4-2.2,5.528,5.528,0,0,1,1.38-1.619,9.206,9.206,0,0,1,2.055-1.192l-0.971-2.214a7.924,7.924,0,0,0-4.748,3.814h0Zm24.667-10.628-8.589-4.884a6.686,6.686,0,0,0-4.788-1,5.889,5.889,0,0,0-3.7,3.164,14.623,14.623,0,0,0-1.7,5.678l2.461,0.438a12.533,12.533,0,0,1,1.344-4.438,3,3,0,0,1,1.985-1.647,4.405,4.405,0,0,1,2.9.751l1.586,0.9-0.977,1.718a8.6,8.6,0,0,0-1.367,5.824,6.071,6.071,0,0,0,3.268,4.131,6.38,6.38,0,0,0,4.539.9,4.987,4.987,0,0,0,3.381-2.6,5.2,5.2,0,0,0-.144-5.589,3.644,3.644,0,0,0,2.307-.022,4.636,4.636,0,0,0,1.875-1.491l-1.658-1.773a2.08,2.08,0,0,1-1.2.455,3.185,3.185,0,0,1-1.521-.515h0Zm-1.5,7.1a2.263,2.263,0,0,1-1.768,1.225,4.636,4.636,0,0,1-2.733-.768,4.07,4.07,0,0,1-2.187-2.533,5.09,5.09,0,0,1,.846-3.563L659.2,132.3l4.063,2.31q2.154,2.668.99,4.716h0Z"/>
  <path id="Płowiecka" class="cls-2" d="M650.691,449.48l-4.168-2.925-15.039,21.432,2.831,1.987,5.565-7.932,1.4,0.982q3.639,2.553,6.8,2.244t5.61-3.793a7.55,7.55,0,0,0,1.526-6.31q-0.765-3.043-4.529-5.685h0Zm-7.839,11.3-1.4-.982,6.33-9.021,1.4,0.982a6.166,6.166,0,0,1,2.768,3.5,5.368,5.368,0,0,1-1.233,4.172q-1.812,2.582-3.641,2.807a6.274,6.274,0,0,1-4.224-1.456h0Zm8.471,18.293a1.033,1.033,0,0,1-.15-1.638l5.893-8.4,4.66-.026,0.215-2.356-3.173-.044,6.7-9.55-2.955-1.61L654.7,466.591l-3.4.077-0.183,2.378,1.855,0-4.583,6.532a4.027,4.027,0,0,0-.835,2.942,3.516,3.516,0,0,0,1.582,2.41,4.523,4.523,0,0,0,2.384.837l0.687-2.3a2.427,2.427,0,0,1-.887-0.39h0Zm19.868-8.2a6.477,6.477,0,0,0-6.091-.978q-3.168,1.074-6.07,5.211-2.815,4.012-2.792,7.418a6.836,6.836,0,0,0,9.069,6.294,13.072,13.072,0,0,0,6.032-5.122q2.946-4.2,2.861-7.485a6.48,6.48,0,0,0-3.009-5.338h0Zm-1.549,2.209a3.186,3.186,0,0,1,1.389,3.18,13.031,13.031,0,0,1-2.585,5.4q-2.38,3.391-4.236,4.316a3.351,3.351,0,0,1-4.884-3.426,13.155,13.155,0,0,1,2.6-5.421q2.379-3.39,4.224-4.3a3.215,3.215,0,0,1,3.5.247h0Zm24.545,14.438L681.8,500.278l7.782-15.986-3.2-2.249-12.448,12.712,7.845-15.942-2.675-1.877-8.455,18.532,3.577,2.51,11.891-12.314-7.5,15.391,3.639,2.554,14.49-14.3Zm5.443,3.82-11.5,16.392,2.738,1.921,11.5-16.392Zm6.795-6.838a2.118,2.118,0,0,0-1.7-.383,2.312,2.312,0,0,0-1.463.992,2.2,2.2,0,0,0-.4,1.667,2.34,2.34,0,0,0,2.644,1.855,2.2,2.2,0,0,0,1.43-.946,2.342,2.342,0,0,0,.463-1.718,2.141,2.141,0,0,0-.966-1.467h0Zm5.678,27.1q2.793-3.981,2.777-7.033a5.846,5.846,0,0,0-2.723-4.952,6.007,6.007,0,0,0-5.965-.727,13.983,13.983,0,0,0-6.026,5.311q-2.859,4.076-2.759,7.372a6.528,6.528,0,0,0,3.025,5.349,8.253,8.253,0,0,0,6.2,1.423l-0.056-2.5a8.035,8.035,0,0,1-2.411-.136,5.951,5.951,0,0,1-2.064-.961,3.432,3.432,0,0,1-1.591-2.927q0-1.814,1.945-4.856l8.585,6.025q0.587-.7,1.067-1.388h0Zm-2.23-2.446-6-4.213a10.67,10.67,0,0,1,3.772-3.457,3.151,3.151,0,0,1,4.4,3.062,9.745,9.745,0,0,1-2.013,4.39Zm16.655,0.545a6.4,6.4,0,0,0-6.084-.857q-3.254,1.129-6.134,5.236-2.946,4.2-2.813,7.449a6.578,6.578,0,0,0,3.057,5.3,7.12,7.12,0,0,0,5.4,1.1l-0.119-2.543a8.757,8.757,0,0,1-2.026-.123,4.24,4.24,0,0,1-1.612-.713,3.25,3.25,0,0,1-1.422-3.133q0.163-2.02,2.5-5.349,4.5-6.406,7.793-4.094a4.533,4.533,0,0,1,1.25,1.3,6.889,6.889,0,0,1,.773,1.842l2.379-.744a6.655,6.655,0,0,0-2.945-4.667h0ZM737.82,508.3l-16.13,22.988,2.737,1.92,16.349-23.3Zm3.211,12.1-10.162,3.964-1.092,12.6,3.049,2.139,0.983-12.912,10.022-3.83Zm5.406,23.059,5.675-8.088a6.677,6.677,0,0,0,1.445-4.672,5.886,5.886,0,0,0-2.8-3.984,14.629,14.629,0,0,0-5.492-2.229l-0.669,2.409a12.56,12.56,0,0,1,4.291,1.758,3,3,0,0,1,1.451,2.132,4.407,4.407,0,0,1-1.021,2.812l-1.048,1.493-1.618-1.135a8.592,8.592,0,0,0-5.668-1.912,6.071,6.071,0,0,0-4.422,2.862,6.381,6.381,0,0,0-1.324,4.433,4.988,4.988,0,0,0,2.27,3.612,5.206,5.206,0,0,0,5.579.387,3.647,3.647,0,0,0-.2,2.3,4.648,4.648,0,0,0,1.307,2.008l1.923-1.482a2.079,2.079,0,0,1-.34-1.237,3.183,3.183,0,0,1,.657-1.465h0Zm-6.927-2.169a2.264,2.264,0,0,1-1.052-1.875,4.621,4.621,0,0,1,1.023-2.648,4.075,4.075,0,0,1,2.729-1.938A5.093,5.093,0,0,1,745.677,536l1.306,0.917-2.685,3.826q-2.859,1.893-4.788.539h0Z"/>
  <path id="Trasa_Siekierkowska" data-name="Trasa Siekierkowska" class="cls-2" d="M34.45,678.821l2.075,2.008,4.15-4.286,16.737,16.2,2.405-2.485-16.736-16.2,4.044-4.177L45.313,667.6ZM56.07,664.738q-2.167,2.238-.169,6.129l-2.861-2.4-2.009,2.075L65.42,684.472l2.326-2.4-8.464-8.194a10.615,10.615,0,0,1-1.89-3.893,2.876,2.876,0,0,1,.736-2.672,5.742,5.742,0,0,1,1.088-.851L57.291,663.8a4.774,4.774,0,0,0-1.221.934h0Zm22.071,0.474-7.1-6.872a6.685,6.685,0,0,0-4.389-2.159,5.886,5.886,0,0,0-4.373,2.14,14.623,14.623,0,0,0-3.062,5.076l2.274,1.038a12.528,12.528,0,0,1,2.408-3.963,3,3,0,0,1,2.334-1.1,4.4,4.4,0,0,1,2.617,1.449l1.311,1.268-1.374,1.42a8.6,8.6,0,0,0-2.776,5.3,6.073,6.073,0,0,0,2.134,4.816,6.378,6.378,0,0,0,4.171,2,4.986,4.986,0,0,0,3.923-1.676A5.2,5.2,0,0,0,77.5,668.5a3.635,3.635,0,0,0,2.239.555,4.64,4.64,0,0,0,2.188-.976l-1.163-2.131a2.081,2.081,0,0,1-1.274.142,3.175,3.175,0,0,1-1.344-.879h0Zm-3.227,6.5a2.259,2.259,0,0,1-2.017.745,4.63,4.63,0,0,1-2.455-1.424,4.075,4.075,0,0,1-1.486-3,5.089,5.089,0,0,1,1.708-3.239l1.11-1.146,3.358,3.251q1.421,3.12-.218,4.813h0Zm-1.268-25.133a6.89,6.89,0,0,0-1.7,2.8,5.42,5.42,0,0,0-.1,2.944A5.148,5.148,0,0,0,73.3,654.81a4.971,4.971,0,0,0,3.182,1.494A9.013,9.013,0,0,0,80.8,655.2a12.615,12.615,0,0,1,2.483-.981,3.277,3.277,0,0,1,1.666-.027,3.574,3.574,0,0,1,1.439.917,3.035,3.035,0,0,1,1.059,2.294,3.459,3.459,0,0,1-1.091,2.329,6.768,6.768,0,0,1-4.483,1.954l0.122,2.551a8.479,8.479,0,0,0,6.3-2.736,7.261,7.261,0,0,0,2.184-4.523,5.411,5.411,0,0,0-1.846-4.458,5.208,5.208,0,0,0-3.574-1.662,10.3,10.3,0,0,0-4.494,1.256,8.667,8.667,0,0,1-3.074,1.044,2.592,2.592,0,0,1-1.948-.829,2.668,2.668,0,0,1-.919-1.973,2.932,2.932,0,0,1,.934-2.031A5.518,5.518,0,0,1,77.3,647.1a9.242,9.242,0,0,1,2.287-.642L79.2,644.073a7.923,7.923,0,0,0-5.549,2.508h0Zm26.538-4.139-7.1-6.872a6.676,6.676,0,0,0-4.389-2.159,5.886,5.886,0,0,0-4.373,2.14,14.618,14.618,0,0,0-3.062,5.075l2.274,1.038a12.532,12.532,0,0,1,2.408-3.962,3,3,0,0,1,2.334-1.1,4.4,4.4,0,0,1,2.617,1.449l1.31,1.269-1.374,1.42a8.594,8.594,0,0,0-2.776,5.3,6.072,6.072,0,0,0,2.134,4.816,6.379,6.379,0,0,0,4.171,2,4.989,4.989,0,0,0,3.923-1.676,5.205,5.205,0,0,0,1.255-5.449,3.648,3.648,0,0,0,2.24.555,4.644,4.644,0,0,0,2.188-.976l-1.164-2.131a2.071,2.071,0,0,1-1.274.141,3.17,3.17,0,0,1-1.344-.878h0Zm-3.227,6.5a2.262,2.262,0,0,1-2.017.745,4.626,4.626,0,0,1-2.455-1.425,4.071,4.071,0,0,1-1.486-3,5.09,5.09,0,0,1,1.708-3.239l1.11-1.147,3.358,3.251q1.421,3.122-.218,4.814h0Zm0.7-36.021a7.557,7.557,0,0,0-1.922,3.269,6.5,6.5,0,0,0-.01,3.534,7.112,7.112,0,0,0,6.115,5.047,11.806,11.806,0,0,0,5.554-1.367,8.4,8.4,0,0,1,3.96-1.085,4.6,4.6,0,0,1,2.844,1.432,4.993,4.993,0,0,1,1.693,3.278,4.061,4.061,0,0,1-1.265,3.165,6.492,6.492,0,0,1-2.487,1.639,11.466,11.466,0,0,1-3.174.6l0.124,2.713a10.7,10.7,0,0,0,4.1-.631,9.57,9.57,0,0,0,3.535-2.4,8.051,8.051,0,0,0,2.13-3.7,7.248,7.248,0,0,0-.1-3.935,7.893,7.893,0,0,0-2.1-3.379,7.125,7.125,0,0,0-4.687-2.315,12.034,12.034,0,0,0-5.38,1.35,9.821,9.821,0,0,1-4.052,1.181,3.905,3.905,0,0,1-2.64-1.207,3.8,3.8,0,0,1-1.279-2.64,3.5,3.5,0,0,1,1.086-2.624,6.045,6.045,0,0,1,2.112-1.445,8.337,8.337,0,0,1,2.8-.516l-0.151-2.685a9.191,9.191,0,0,0-3.7.571,8.793,8.793,0,0,0-3.109,2.147h0Zm12.573-3.537,14.388,13.929,2.326-2.4-14.388-13.928Zm-5.689-7.781a2.12,2.12,0,0,0-.646,1.623,2.32,2.32,0,0,0,.752,1.6,2.2,2.2,0,0,0,1.583.659,2.341,2.341,0,0,0,2.246-2.32,2.2,2.2,0,0,0-.711-1.561,2.34,2.34,0,0,0-1.624-.726,2.135,2.135,0,0,0-1.6.725h0Zm27.657-1.363q-3.5-3.382-6.512-3.845a5.847,5.847,0,0,0-5.317,1.914,6.009,6.009,0,0,0-1.653,5.778,13.985,13.985,0,0,0,4.3,6.783q3.576,3.462,6.848,3.879a6.527,6.527,0,0,0,5.757-2.149,8.252,8.252,0,0,0,2.376-5.9l-2.478-.336a8.008,8.008,0,0,1-.512,2.36,5.932,5.932,0,0,1-1.273,1.888,3.428,3.428,0,0,1-3.139,1.113q-1.793-.281-4.492-2.682l7.3-7.535q-0.6-.69-1.2-1.271h0Zm-2.765,1.819-5.1,5.269a10.665,10.665,0,0,1-2.824-4.267,3.151,3.151,0,0,1,3.713-3.863,9.751,9.751,0,0,1,4.021,2.676ZM122.63,585l20.177,19.532,2.326-2.4-20.45-19.8Zm12.449-1.277L137.4,594.38l12.277,3.052,2.59-2.675-12.6-2.994-2.213-10.5Zm4.652-4.8,14.388,13.929,2.326-2.4-14.388-13.929Zm-5.69-7.782a2.122,2.122,0,0,0-.645,1.623,2.312,2.312,0,0,0,.752,1.6,2.2,2.2,0,0,0,1.582.66,2.341,2.341,0,0,0,2.247-2.321,2.2,2.2,0,0,0-.711-1.56,2.34,2.34,0,0,0-1.624-.726,2.14,2.14,0,0,0-1.6.724h0Zm27.658-1.362q-3.5-3.383-6.512-3.845a5.845,5.845,0,0,0-5.317,1.914,6.008,6.008,0,0,0-1.653,5.778,13.989,13.989,0,0,0,4.3,6.783q3.576,3.462,6.848,3.879a6.525,6.525,0,0,0,5.756-2.149,8.251,8.251,0,0,0,2.377-5.9l-2.478-.336a8.008,8.008,0,0,1-.512,2.36,5.976,5.976,0,0,1-1.273,1.888,3.431,3.431,0,0,1-3.14,1.112q-1.791-.279-4.491-2.681l7.295-7.536q-0.6-.689-1.2-1.27h0Zm-2.765,1.818-5.1,5.27a10.645,10.645,0,0,1-2.824-4.268,3.151,3.151,0,0,1,3.713-3.862,9.747,9.747,0,0,1,4.021,2.675Zm4.019-17.264q-2.167,2.24-.169,6.13l-2.861-2.4-2.009,2.075L172.3,574.062l2.326-2.4-8.464-8.193a10.629,10.629,0,0,1-1.891-3.893,2.878,2.878,0,0,1,.736-2.672,5.727,5.727,0,0,1,1.088-.851l-1.924-2.656a4.791,4.791,0,0,0-1.221.933h0Zm-2.29-8.616,20.177,19.532,2.326-2.4-20.45-19.8Zm12.449-1.277,2.323,10.658,12.277,3.053,2.59-2.676-12.6-2.994-2.212-10.5Zm8.607-9.492A6.479,6.479,0,0,0,179.8,540.8q0.566,3.3,4.2,6.812,3.522,3.409,6.889,3.919a6.837,6.837,0,0,0,7.637-7.971,13.061,13.061,0,0,0-4.114-6.759q-3.685-3.569-6.944-4a6.479,6.479,0,0,0-5.743,2.135h0Zm1.938,1.877a3.189,3.189,0,0,1,3.359-.874,13.03,13.03,0,0,1,4.932,3.4,13.264,13.264,0,0,1,3.6,4.859,3.352,3.352,0,0,1-4.15,4.287,13.167,13.167,0,0,1-4.946-3.414q-2.976-2.88-3.586-4.846a3.215,3.215,0,0,1,.791-3.412h0Zm18.1-21.981L212.42,529.07l-14.569-10.191-2.723,2.812,10.605,14.286-14.516-10.245-2.273,2.348,16.978,11.253,3.04-3.14-10.3-13.672,14.026,9.823,3.093-3.2L203.93,512.6Zm7.708-8.563a6.893,6.893,0,0,0-1.7,2.8,5.419,5.419,0,0,0-.1,2.944,5.144,5.144,0,0,0,1.451,2.489A4.981,4.981,0,0,0,212.3,516a9.025,9.025,0,0,0,4.322-1.105,12.621,12.621,0,0,1,2.483-.981,3.268,3.268,0,0,1,1.666-.027,3.562,3.562,0,0,1,1.439.917,3.035,3.035,0,0,1,1.059,2.294,3.464,3.464,0,0,1-1.091,2.329,6.774,6.774,0,0,1-4.483,1.954l0.122,2.551a8.489,8.489,0,0,0,6.3-2.736,7.269,7.269,0,0,0,2.184-4.523,5.412,5.412,0,0,0-1.846-4.458,5.207,5.207,0,0,0-3.575-1.662,10.315,10.315,0,0,0-4.494,1.255,8.623,8.623,0,0,1-3.074,1.044,2.59,2.59,0,0,1-1.948-.828,2.673,2.673,0,0,1-.919-1.974,2.932,2.932,0,0,1,.935-2.03,5.5,5.5,0,0,1,1.74-1.224,9.249,9.249,0,0,1,2.287-.642l-0.388-2.386a7.929,7.929,0,0,0-5.549,2.509h0Zm1.516-12.547,20.177,19.532,2.326-2.4-20.45-19.8Zm12.449-1.277,2.323,10.658,12.277,3.052,2.59-2.676-12.6-2.993-2.212-10.5Zm23.62-1.727-7.1-6.872a6.683,6.683,0,0,0-4.389-2.16,5.883,5.883,0,0,0-4.372,2.141,14.594,14.594,0,0,0-3.062,5.075l2.274,1.038a12.528,12.528,0,0,1,2.408-3.963,3,3,0,0,1,2.334-1.1,4.4,4.4,0,0,1,2.616,1.449l1.311,1.268-1.374,1.42a8.591,8.591,0,0,0-2.776,5.3,6.07,6.07,0,0,0,2.134,4.816,6.377,6.377,0,0,0,4.171,2,4.99,4.99,0,0,0,3.923-1.676,5.2,5.2,0,0,0,1.255-5.449,3.649,3.649,0,0,0,2.24.555,4.656,4.656,0,0,0,2.187-.976l-1.163-2.131a2.08,2.08,0,0,1-1.274.141,3.182,3.182,0,0,1-1.345-.878h0Zm-3.226,6.5a2.266,2.266,0,0,1-2.017.745,4.623,4.623,0,0,1-2.455-1.425,4.073,4.073,0,0,1-1.487-3,5.086,5.086,0,0,1,1.708-3.239l1.11-1.147,3.358,3.251q1.422,3.122-.217,4.814h0Z"/>
  <path id="telefony" class="cls-2" d="M276.252,53.513a10.754,10.754,0,0,1-1.758-.3,4.291,4.291,0,0,1-1.284-.649q-2.067-1.472-.346-3.887l11.039-15.5,4.434,3.158,3.794-4.048-5.039-3.589,4.731-6.643-6.735-3.659-4.194,5.888-3.124-2.225-3.189,4.479,3.124,2.225-11.039,15.5a9.481,9.481,0,0,0-2.039,6.7q0.4,3.279,3.876,5.756a11.093,11.093,0,0,0,7.192,2.164Zm29.22,7.384q4.695-6.592,4.494-11.855a10.687,10.687,0,0,0-4.888-8.6A10.655,10.655,0,0,0,294.8,38.883q-5.4,1.923-10.089,8.515t-4.479,12.207q0.216,5.615,5.457,9.347a14.391,14.391,0,0,0,10.9,2.607l-0.061-5.353a14.658,14.658,0,0,1-3.922-.252,8.879,8.879,0,0,1-3.2-1.481,5.069,5.069,0,0,1-2.337-4.13Q287,57.83,289.737,53.559l13.756,9.8q1.656-2.006,1.979-2.459h0Zm-5.008-5.766-7.86-5.6q3.212-4.084,5.4-5.07a3.829,3.829,0,0,1,4.048.342,3.763,3.763,0,0,1,1.686,3.817q-0.33,2.382-3.018,6.156Zm4.52,27.566a9.483,9.483,0,0,0,4.51,1.771l1.8-5.088a2.366,2.366,0,0,0-.5-0.2,2.82,2.82,0,0,1-.752-0.384,1.3,1.3,0,0,1-.62-1.049,2.107,2.107,0,0,1,.45-1.272l22.974-32.257-6.664-3.76L303.5,72.309a7.737,7.737,0,0,0-1.62,5.634,6.918,6.918,0,0,0,3.108,4.754h0ZM341.1,86.269q4.695-6.592,4.494-11.855a11.62,11.62,0,0,0-15.17-10.159q-5.4,1.923-10.089,8.515t-4.479,12.207q0.216,5.615,5.457,9.347a14.392,14.392,0,0,0,10.9,2.607l-0.061-5.353a14.65,14.65,0,0,1-3.921-.252,8.883,8.883,0,0,1-3.2-1.481,5.069,5.069,0,0,1-2.337-4.13q-0.071-2.514,2.668-6.785l13.756,9.8q1.656-2.006,1.979-2.459h0ZM336.09,80.5l-7.861-5.6q3.212-4.084,5.4-5.07a3.829,3.829,0,0,1,4.048.342,3.761,3.761,0,0,1,1.686,3.817q-0.33,2.382-3.018,6.156Zm32.878-3.511a9.608,9.608,0,0,1,2.817,3.3l4.581-2.806a15.5,15.5,0,0,0-4.871-5.744q-3.93-2.8-7.588-2.142a9.727,9.727,0,0,0-6.238,4.28l-2.4,3.372-3.326-2.369-3.189,4.479,3.325,2.368-15.769,22.143,6.2,4.414L358.276,86.14l4.384,3.122,3.895-3.976-5.089-3.624,2.545-3.573a4.144,4.144,0,0,1,2.328-1.83,3.287,3.287,0,0,1,2.629.734h0Zm9.88,15.986a11.476,11.476,0,0,0-10.391-1.939q-5.4,1.613-10.2,8.357-4.838,6.794-4.615,12.452A12.422,12.422,0,0,0,369.312,122.9q5.474-1.715,10.2-8.357,4.946-6.945,4.658-12.459a11.59,11.59,0,0,0-5.327-9.1h0Zm-3.333,4.68a4.085,4.085,0,0,1,1.669,4.374q-0.5,2.832-4.117,7.914t-6.151,6.5a4.205,4.205,0,0,1-6.349-4.522q0.514-2.856,4.135-7.939,3.584-5.031,6.115-6.453a4.084,4.084,0,0,1,4.7.122h0Zm31,15.021a7.97,7.97,0,0,0-4.438-1.606,13.067,13.067,0,0,0-5.138,1.082l2.02-3.8-5.392-3.839L374.6,131.142l6.2,4.414,13.26-18.62q4.9-2.5,7.014-1a2.1,2.1,0,0,1,.946,1.925,6.534,6.534,0,0,1-1.425,3.119L387.05,140.006l6.2,4.414L407.3,124.693a10.521,10.521,0,0,0,2.28-6.72,6.77,6.77,0,0,0-3.066-5.293h0Zm29.782,22.272-6.148-4.378L409.388,149.7l11.586-25.653-6.3-4.486-12.207,31.431,2.318,1.65a11.785,11.785,0,0,1-5.666,2.678,12.352,12.352,0,0,1-6.25-1.3l-2.412,4.88a15.566,15.566,0,0,0,10.1,2.342,19.565,19.565,0,0,0,9.644-4.584Z"/>
  <path id="G" class="cls-3" d="M457.437,137.04a13.617,13.617,0,0,0-7.8-2.595,16.337,16.337,0,0,0-8.85,2.723,31.114,31.114,0,0,0-8.774,8.694q-12.8,17.965-.55,26.686a20.066,20.066,0,0,0,11.659,3.677l11.9-16.708-9.675-6.89L443.2,156.71l4.737,3.373-7.67,10.769a10.82,10.82,0,0,1-6.064-2.043,7.913,7.913,0,0,1-3.225-4.269,10.033,10.033,0,0,1,.667-6.161,41.841,41.841,0,0,1,5.207-9.072q5.484-7.7,9.97-9.359a8.117,8.117,0,0,1,7.962.816,9.94,9.94,0,0,1,2.82,2.919,14.762,14.762,0,0,1,1.565,4.148l4.347-.772a18.5,18.5,0,0,0-2.031-5.732,13.815,13.815,0,0,0-4.049-4.287h0Z"/>
  <path id="S" class="cls-4" d="M480.586,153.526a12.317,12.317,0,0,0-5.73-2.3,10.574,10.574,0,0,0-5.688.841,11.551,11.551,0,0,0-6.623,11.06,19.226,19.226,0,0,0,3.557,8.6q2.531,3.7,2.715,6.106a7.471,7.471,0,0,1-1.607,4.923,8.108,8.108,0,0,1-4.859,3.517,6.613,6.613,0,0,1-5.4-1.268,10.562,10.562,0,0,1-3.246-3.6,18.713,18.713,0,0,1-1.746-4.96l-4.332.858a17.4,17.4,0,0,0,2.018,6.444,15.575,15.575,0,0,0,4.719,5.1,13.108,13.108,0,0,0,6.478,2.528,11.8,11.8,0,0,0,6.305-1.122,12.815,12.815,0,0,0,4.923-4.193q3.045-4.276,2.578-8.1a19.594,19.594,0,0,0-3.488-8.325q-2.611-3.907-2.892-6.231a6.344,6.344,0,0,1,1.3-4.539,6.181,6.181,0,0,1,3.933-2.7,5.7,5.7,0,0,1,4.488,1.11,9.841,9.841,0,0,1,2.842,3.048,13.562,13.562,0,0,1,1.515,4.378l4.282-.894a14.959,14.959,0,0,0-1.823-5.811,14.336,14.336,0,0,0-4.214-4.481h0Z"/>
  <path id="M" class="cls-5" d="M519.022,181.734l-6.1-4.342L489.484,199l12.456-29.433-5.946-4.234L468.932,198.32l4.334,3.087,11.859-14.84q6.351-8.066,9.148-11.992l1.6-2.35-12.4,30.532,4.283,3.05,24.461-21.869q-3.293,4.407-9.589,14.636l-10.31,16.4,4.333,3.086Z"/>
  <circle class="cls-6" cx="367.5" cy="218.5" r="30.5"/>
</svg>
