<svg xmlns="http://www.w3.org/2000/svg" width="32" height="32" viewBox="0 0 32 32">
  <metadata><?xpacket begin="﻿" id="W5M0MpCehiHzreSzNTczkc9d"?>
<x:xmpmeta xmlns:x="adobe:ns:meta/" x:xmptk="Adobe XMP Core 5.6-c138 79.159824, 2016/09/14-01:09:01        ">
   <rdf:RDF xmlns:rdf="http://www.w3.org/1999/02/22-rdf-syntax-ns#">
      <rdf:Description rdf:about=""/>
   </rdf:RDF>
</x:xmpmeta>
                                                                                                    
                                                                                                    
                                                                                                    
                                                                                                    
                                                                                                    
                                                                                                    
                                                                                                    
                                                                                                    
                                                                                                    
                                                                                                    
                                                                                                    
                                                                                                    
                                                                                                    
                                                                                                    
                                                                                                    
                                                                                                    
                                                                                                    
                                                                                                    
                                                                                                    
                                                                                                    
                           
<?xpacket end="w"?></metadata>
<defs>
    <style>
      .cls-1 {
        fill: #004c80;
        fill-rule: evenodd;
      }
    </style>
  </defs>
  <path id="_4_" data-name="4 " class="cls-1" d="M285,807H259a2,2,0,0,1-2-2V783l26-8a1.925,1.925,0,0,1,1.25-.062A1.023,1.023,0,0,1,285,776v7a2,2,0,0,1,2,2v20A2,2,0,0,1,285,807Zm-2-30-19.5,6H283v-6Zm2,19v-1h-4v2h4v-1Zm-26-11h25a1,1,0,0,1,1,1v7h-5a1,1,0,0,0-1,1v4a1,1,0,0,0,1,1h5v5a1,1,0,0,1-1,1H260a1,1,0,0,1-1-1V785Z" transform="translate(-256 -774.922)"/>
</svg>
