<svg xmlns="http://www.w3.org/2000/svg" width="32" height="32" viewBox="0 0 32 32">
  <metadata><?xpacket begin="﻿" id="W5M0MpCehiHzreSzNTczkc9d"?>
<x:xmpmeta xmlns:x="adobe:ns:meta/" x:xmptk="Adobe XMP Core 5.6-c138 79.159824, 2016/09/14-01:09:01        ">
   <rdf:RDF xmlns:rdf="http://www.w3.org/1999/02/22-rdf-syntax-ns#">
      <rdf:Description rdf:about=""/>
   </rdf:RDF>
</x:xmpmeta>
                                                                                                    
                                                                                                    
                                                                                                    
                                                                                                    
                                                                                                    
                                                                                                    
                                                                                                    
                                                                                                    
                                                                                                    
                                                                                                    
                                                                                                    
                                                                                                    
                                                                                                    
                                                                                                    
                                                                                                    
                                                                                                    
                                                                                                    
                                                                                                    
                                                                                                    
                                                                                                    
                           
<?xpacket end="w"?></metadata>
<defs>
    <style>
      .cls-1 {
        fill: #004c80;
        fill-rule: evenodd;
      }
    </style>
  </defs>
  <path id="_1" data-name="1" class="cls-1" d="M130,787v16a4,4,0,0,1-4,4H106a4,4,0,0,1-4-4V787a2,2,0,0,1-2-2v-2a2,2,0,0,1,2-2h7.555a3.955,3.955,0,0,1-.555-2,3.985,3.985,0,0,1,7-2.62,3.98,3.98,0,0,1,6.445,4.62H130a2,2,0,0,1,2,2v2A2,2,0,0,1,130,787Zm-4,18a2,2,0,0,0,2-2v-6H117v8h9Zm-9-10h11v-8H117v8Zm-13,8a2,2,0,0,0,2,2h9v-8H104v6Zm0-8h11v-8H104v8Zm9-18a2,2,0,1,0,2,2A2,2,0,0,0,113,777Zm6,0a2,2,0,1,0,2,2A2,2,0,0,0,119,777Zm10,6H103a1,1,0,0,0,0,2h26A1,1,0,0,0,129,783Z" transform="translate(-100 -775)"/>
</svg>
