<?xml version="1.0" encoding="utf-8"?>
<!-- Generator: Adobe Illustrator 21.0.0, SVG Export Plug-In . SVG Version: 6.00 Build 0)  -->
<svg version="1.1" id="Capa_1" xmlns="http://www.w3.org/2000/svg" xmlns:xlink="http://www.w3.org/1999/xlink" x="0px" y="0px"
	 viewBox="0 0 30 30" style="enable-background:new 0 0 30 30;" xml:space="preserve">
<style type="text/css">
	.st0{fill:#007399;}
</style>
<path class="st0" d="M22.5,8.2l-3.8,3.7c-0.3,0.3-0.3,0.8,0,1.1c0.1,0.1,0.3,0.2,0.5,0.2s0.4-0.1,0.5-0.2l5-4.9
	C24.9,7.9,25,7.7,25,7.5S24.9,7.1,24.8,7l-5-5c-0.3-0.3-0.8-0.3-1.1,0s-0.3,0.8,0,1.1l3.7,3.7H6.6c-3.9,0-6.5,2.4-6.5,6v4.9
	c0,0.4,0.3,0.8,0.8,0.8s0.8-0.3,0.8-0.8v-4.9c0-2.8,1.9-4.5,5-4.5h15.8V8.2z M29.1,11.7c-0.4,0-0.8,0.3-0.8,0.8v4.9
	c0,2.8-1.9,4.5-5,4.5H7.5l3.8-3.7c0.3-0.3,0.3-0.8,0-1.1s-0.8-0.3-1.1,0l-5,4.9C5.1,22.1,5,22.3,5,22.5s0.1,0.4,0.2,0.5l5,5
	c0.1,0.1,0.3,0.2,0.5,0.2s0.4-0.1,0.5-0.2c0.3-0.3,0.3-0.8,0-1.1l-3.7-3.7h15.7c3.9,0,6.5-2.4,6.5-6v-4.9
	C29.8,12,29.5,11.7,29.1,11.7z"/>
</svg>
