<svg xmlns="http://www.w3.org/2000/svg" width="32" height="32" viewBox="0 0 32 32">
  <metadata><?xpacket begin="﻿" id="W5M0MpCehiHzreSzNTczkc9d"?>
<x:xmpmeta xmlns:x="adobe:ns:meta/" x:xmptk="Adobe XMP Core 5.6-c138 79.159824, 2016/09/14-01:09:01        ">
   <rdf:RDF xmlns:rdf="http://www.w3.org/1999/02/22-rdf-syntax-ns#">
      <rdf:Description rdf:about=""/>
   </rdf:RDF>
</x:xmpmeta>
                                                                                                    
                                                                                                    
                                                                                                    
                                                                                                    
                                                                                                    
                                                                                                    
                                                                                                    
                                                                                                    
                                                                                                    
                                                                                                    
                                                                                                    
                                                                                                    
                                                                                                    
                                                                                                    
                                                                                                    
                                                                                                    
                                                                                                    
                                                                                                    
                                                                                                    
                                                                                                    
                           
<?xpacket end="w"?></metadata>
<defs>
    <style>
      .cls-1 {
        fill: #004c80;
        fill-rule: evenodd;
      }
    </style>
  </defs>
  <path id="_10" data-name="10" class="cls-1" d="M593.671,308.846a9.219,9.219,0,0,0-12.62,11.3L570.2,330.975a4.1,4.1,0,1,0,5.808,5.8l10.851-10.828a9.191,9.191,0,0,0,11.3-12.572c-0.506.566-1.347,1.29-2.55,2.391a3.077,3.077,0,0,1-4.356-4.347C592.428,310.242,593.692,308.852,593.671,308.846ZM583.5,320.6a7.084,7.084,0,0,1,6.2-10.508,5.114,5.114,0,0,0,7.236,7.223,7.077,7.077,0,0,1-2.054,4.971,7.175,7.175,0,0,1-8.477,1.212l-11.851,11.828a2.051,2.051,0,0,1-2.9-2.9Z" transform="translate(-568 -307)"/>
</svg>
