<svg xmlns="http://www.w3.org/2000/svg" width="32" height="31.998" viewBox="0 0 31.002 31">
  <metadata><?xpacket begin="﻿" id="W5M0MpCehiHzreSzNTczkc9d"?>
<x:xmpmeta xmlns:x="adobe:ns:meta/" x:xmptk="Adobe XMP Core 5.6-c138 79.159824, 2016/09/14-01:09:01        ">
   <rdf:RDF xmlns:rdf="http://www.w3.org/1999/02/22-rdf-syntax-ns#">
      <rdf:Description rdf:about=""/>
   </rdf:RDF>
</x:xmpmeta>
                                                                                                    
                                                                                                    
                                                                                                    
                                                                                                    
                                                                                                    
                                                                                                    
                                                                                                    
                                                                                                    
                                                                                                    
                                                                                                    
                                                                                                    
                                                                                                    
                                                                                                    
                                                                                                    
                                                                                                    
                                                                                                    
                                                                                                    
                                                                                                    
                                                                                                    
                                                                                                    
                           
<?xpacket end="w"?></metadata>
<defs>
    <style>
      .cls-1 {
        fill: #004c80;
        fill-rule: evenodd;
      }
    </style>
  </defs>
  <path id="_4" data-name="4" class="cls-1" d="M284.2,308.562l2.877,2.87c1.59,1.586.826,3.478,0,5.741A67.807,67.807,0,0,1,278,329a61.431,61.431,0,0,1-11.792,8.981c-2.1,1.077-4.166,1.585-5.756,0l-2.878-2.87a1.889,1.889,0,0,1,0-2.87l5.756-4.305a2.172,2.172,0,0,1,2.878,0h0l1.7,1.7a57.579,57.579,0,0,0,6.213-5.285,49.583,49.583,0,0,0,4.639-5.419L277,317.173a2.157,2.157,0,0,1,0-2.87l4.317-5.741a2.039,2.039,0,0,1,2.877,0M281.4,318.7l-2.311-2.305a1.373,1.373,0,0,1,0-1.827l2.747-3.652a1.168,1.168,0,0,1,1.831,0l1.832,1.826c0.718,0.674.51,2.245,0.131,3A60.621,60.621,0,0,1,277,327.218c-3.644,3.941-12.232,9.328-12.232,9.328-0.663.347-2.5,0.374-3.009-.131l-1.831-1.826a1.369,1.369,0,0,1,0-1.826l3.663-2.74a1.382,1.382,0,0,1,1.831,0l2.257,2.25C268.212,331.9,276.689,326.343,281.4,318.7Z" transform="translate(-256.952 -308)"/>
</svg>
