<svg xmlns="http://www.w3.org/2000/svg" width="32" height="32" viewBox="0 0 32 32">
  <metadata><?xpacket begin="﻿" id="W5M0MpCehiHzreSzNTczkc9d"?>
<x:xmpmeta xmlns:x="adobe:ns:meta/" x:xmptk="Adobe XMP Core 5.6-c138 79.159824, 2016/09/14-01:09:01        ">
   <rdf:RDF xmlns:rdf="http://www.w3.org/1999/02/22-rdf-syntax-ns#">
      <rdf:Description rdf:about=""/>
   </rdf:RDF>
</x:xmpmeta>
                                                                                                    
                                                                                                    
                                                                                                    
                                                                                                    
                                                                                                    
                                                                                                    
                                                                                                    
                                                                                                    
                                                                                                    
                                                                                                    
                                                                                                    
                                                                                                    
                                                                                                    
                                                                                                    
                                                                                                    
                                                                                                    
                                                                                                    
                                                                                                    
                                                                                                    
                                                                                                    
                           
<?xpacket end="w"?></metadata>
<defs>
    <style>
      .cls-1 {
        fill: #004c80;
        fill-rule: evenodd;
      }
    </style>
  </defs>
  <path id="_7" data-name="7" class="cls-1" d="M443.832,634.006l-3.756,3.8a0.807,0.807,0,0,1-1.118,0l-3.731-3.8c-0.444-.52-0.148-0.7.161-1.006h3.417a11.01,11.01,0,0,0-20.49-3.264l-1.863-.745A13,13,0,0,1,440.827,633h2.843A0.68,0.68,0,0,1,443.832,634.006Zm-26.778-.806,3.755,3.794a0.679,0.679,0,0,1-.161,1.006H417.4a11.008,11.008,0,0,0,19.768,3.069l1.883,0.752a12.988,12.988,0,0,1-23.7-3.821h-2.981c-0.309-.3-0.6-0.486-0.162-1.006l3.731-3.794A0.806,0.806,0,0,1,417.054,633.2Z" transform="translate(-412 -619)"/>
</svg>
